<svg width="24" height="24" viewBox="0 0 24 24" fill="none" xmlns="http://www.w3.org/2000/svg">
<path d="M17 11.9998C17 14.7612 14.7614 16.9998 12 16.9998C9.23858 16.9998 7 14.7612 7 11.9998C7 9.23833 9.23858 6.99976 12 6.99976C14.7614 6.99976 17 9.23833 17 11.9998Z" fill="#001A41"/>
<path d="M18 11.7498C18 11.3355 18.3358 10.9998 18.75 10.9998H20.25C20.6642 10.9998 21 11.3355 21 11.7498C21 12.164 20.6642 12.4998 20.25 12.4998H18.75C18.3358 12.4998 18 12.164 18 11.7498Z" fill="#001A41"/>
<path d="M3 11.7498C3 11.3355 3.33579 10.9998 3.75 10.9998H5.25C5.66421 10.9998 6 11.3355 6 11.7498C6 12.164 5.66421 12.4998 5.25 12.4998H3.75C3.33579 12.4998 3 12.164 3 11.7498Z" fill="#001A41"/>
<path d="M16.5303 7.65142C16.2374 7.35853 16.2374 6.88366 16.5303 6.59076L17.591 5.5301C17.8839 5.23721 18.3588 5.23721 18.6517 5.5301C18.9445 5.823 18.9445 6.29787 18.6517 6.59076L17.591 7.65142C17.2981 7.94432 16.8232 7.94432 16.5303 7.65142Z" fill="#001A41"/>
<path d="M5.53034 5.53009C5.82323 5.23719 6.29811 5.23719 6.591 5.53009L7.65166 6.59075C7.94455 6.88364 7.94455 7.35851 7.65166 7.65141C7.35877 7.9443 6.88389 7.9443 6.591 7.65141L5.53034 6.59075C5.23745 6.29785 5.23745 5.82298 5.53034 5.53009Z" fill="#001A41"/>
<path d="M16.5303 16.5301C16.8232 16.2372 17.2981 16.2372 17.591 16.5301L18.6517 17.5907C18.9446 17.8836 18.9446 18.3585 18.6517 18.6514C18.3588 18.9443 17.8839 18.9443 17.591 18.6514L16.5303 17.5907C16.2374 17.2979 16.2374 16.823 16.5303 16.5301Z" fill="#001A41"/>
<path d="M5.53033 18.6514C5.23744 18.3585 5.23744 17.8836 5.53033 17.5907L6.59099 16.5301C6.88388 16.2372 7.35876 16.2372 7.65165 16.5301C7.94454 16.823 7.94454 17.2979 7.65165 17.5907L6.59099 18.6514C6.2981 18.9443 5.82322 18.9443 5.53033 18.6514Z" fill="#001A41"/>
<path d="M11.75 6.09082C11.3358 6.09082 11 5.75503 11 5.34082V3.84082C11 3.42661 11.3358 3.09082 11.75 3.09082C12.1642 3.09082 12.5 3.42661 12.5 3.84082V5.34082C12.5 5.75503 12.1642 6.09082 11.75 6.09082Z" fill="#001A41"/>
<path d="M11.75 20.9998C11.3358 20.9998 11 20.664 11 20.2498V18.7498C11 18.3355 11.3358 17.9998 11.75 17.9998C12.1642 17.9998 12.5 18.3355 12.5 18.7498V20.2498C12.5 20.664 12.1642 20.9998 11.75 20.9998Z" fill="#001A41"/>
</svg>
