<svg width="24" height="24" viewBox="0 0 24 24" fill="none" xmlns="http://www.w3.org/2000/svg">
<path d="M18 3C19.5 3 21 4.5 21 6V18C21 19.5 19.5 21 18 21H6C4.5 21 3 19.5 3 18V6C3 4.5 4.5 3 6 3H18ZM14.3232 11.2012C14.1258 10.9003 13.6848 10.9003 13.4873 11.2012L10.6104 15.582L9.06055 12.9844C8.86658 12.6593 8.39514 12.6593 8.20117 12.9844L5.02246 18.3115C4.82374 18.6448 5.0641 19.0674 5.45215 19.0674H18.5605C18.9583 19.0674 19.1968 18.6255 18.9785 18.293L14.3232 11.2012ZM12.5 5C11.6716 5 11 5.67157 11 6.5C11 7.32843 11.6716 8 12.5 8C13.3284 8 14 7.32843 14 6.5C14 5.67157 13.3284 5 12.5 5Z" fill="#001A41"/>
</svg>
