<svg width="41" height="16" viewBox="0 0 41 16" fill="none" xmlns="http://www.w3.org/2000/svg">
<path d="M13.4375 2.61201L24.0108 2.61201L24.0108 9.14318L19.5751 9.14318L24.0108 13.3229L20.2427 13.3229L15.8926 9.14318L15.8926 13.3229L13.4375 13.3229L13.4375 6.6834L21.1898 6.68341L21.1898 5.0941L13.4375 5.0941L13.4375 2.61201Z" fill="white"/>
<path d="M25.1075 13.3229L27.6915 13.3229L27.6915 2.59031L25.1074 2.59031L25.1075 13.3229Z" fill="white"/>
<path d="M4.41248 10.7323L4.41246 2.61201L2.38827 2.61201C2.02221 2.61201 1.74223 2.89523 1.74224 3.24311C1.74224 5.15952 1.72074 10.7977 1.72074 12.6698C1.72074 13.0182 2.00072 13.3229 2.34526 13.3229C3.74493 13.3229 7.77164 13.3229 8.35281 13.3229L8.3528 10.7323L4.41248 10.7323Z" fill="white"/>
<path d="M9.68949 16.0007C9.92666 16.0007 11.7354 16.0007 12.3385 16.0007C12.3385 16.0007 12.3385 10.7106 12.3385 10.6235C11.477 10.6235 10.573 10.6235 9.68948 10.6235C9.68948 12.4086 9.68949 14.1937 9.68949 16.0007Z" fill="white"/>
<path d="M5.7051 2.61204C5.7051 2.65591 5.70511 5.28962 5.70511 5.28962C6.88951 5.28962 8.39663 5.28962 9.68855 5.28962C9.68855 7.14061 9.68856 9.2956 9.68856 9.2956C10.2917 9.2956 12.1004 9.2956 12.3376 9.2956L12.3376 3.26546C12.3376 2.91682 12.0572 2.63359 11.7132 2.61204C10.4213 2.61204 7.36308 2.61204 5.7051 2.61204Z" fill="white"/>
<path d="M5.70511 6.59661C5.70511 7.48939 5.70512 8.38218 5.70512 9.31806C5.92047 9.31806 6.15733 9.31806 6.37268 9.31806C6.9759 9.31806 7.72908 9.31806 8.33223 9.31806C8.33223 9.31806 8.33222 6.64048 8.33222 6.59661C7.47069 6.59661 6.58801 6.59661 5.70511 6.59661ZM7.55707 8.4907C7.29869 8.4907 6.99712 8.4907 6.75995 8.4907C6.67417 8.4907 6.58802 8.4907 6.48035 8.4907C6.48034 8.1205 6.48034 7.77262 6.48034 7.40242C6.84632 7.40242 7.19109 7.40242 7.55707 7.40242C7.55707 7.42397 7.55707 8.4907 7.55707 8.4907Z" fill="white"/>
<path d="M40.3753 10.6247L40.3753 14.6304C40.3753 14.9786 40.0738 15.2617 39.7298 15.2617L35.7676 15.2617L35.7676 15.9147L40.3754 15.9147L40.3973 15.9147C40.7201 15.9147 40.9997 15.6317 40.9997 15.2834L40.9997 15.2617L40.9997 10.6247L40.3753 10.6247Z" fill="white"/>
<path d="M0.646078 5.26917L0.646068 1.26319C0.646067 0.915308 0.90445 0.653631 1.24899 0.653631L5.21121 0.653632C5.23273 0.653632 5.23273 0.632082 5.23273 0.632082L5.23273 0.0225249C5.23273 0.0225249 5.23273 0.0009752 5.21121 0.000975194L0.646064 0.000973887C0.280007 0.000973782 2.80202e-05 0.284203 2.90019e-05 0.65363L4.1267e-05 5.26917C4.13243e-05 5.29072 0.0215607 5.29072 0.0215607 5.29072L0.624559 5.29072C0.624559 5.29072 0.646078 5.29072 0.646078 5.26917Z" fill="white"/>
<path d="M39.2543 5.26863L39.2543 2.6126L28.8106 2.6126L28.8106 6.59626L28.8106 9.27461L35.7665 9.27461L35.7665 10.6023L28.8106 10.6023L28.8106 13.28L39.2543 13.28L39.2543 6.61858L32.2991 6.61858L32.2991 5.26863L39.2543 5.26863Z" fill="white"/>
</svg>
