<svg width="12" height="12" viewBox="0 0 12 12" fill="none" xmlns="http://www.w3.org/2000/svg">
<path d="M11.1008 3.3391C11.0899 2.95628 10.8614 2.61328 10.5123 2.45584L6.53609 0.888211C6.2747 0.770336 5.97529 0.770336 5.71391 0.888212L1.73772 2.45584C1.3886 2.61328 1.16006 2.95628 1.14921 3.3391L1.125 4.19336C1.125 5.50652 1.75 7.24982 2.5 8.45282C3.02055 9.28779 3.90166 10.0553 4.85231 10.6086C5.63919 11.0666 6.61081 11.0666 7.39769 10.6086C8.34834 10.0553 9.22945 9.28779 9.75 8.45282C10.5 7.24982 11.125 5.50652 11.125 4.19336L11.1008 3.3391ZM8.469 4.2837L5.829 7.65746C5.79063 7.70609 5.74248 7.74607 5.68768 7.77478C5.63289 7.80349 5.57269 7.82029 5.511 7.82408L5.485 7.82509C5.36875 7.82489 5.2573 7.77852 5.175 7.6961L3.815 6.33094C3.73298 6.24841 3.68698 6.13656 3.68712 6.01998C3.68726 5.90341 3.73353 5.79167 3.81575 5.70934C3.89797 5.62701 4.0094 5.58084 4.12553 5.58098C4.24166 5.58112 4.35298 5.62756 4.435 5.71009L5.446 6.72493L7.781 3.74115C7.854 3.65334 7.95821 3.59753 8.07152 3.58558C8.18483 3.57363 8.29833 3.60647 8.38791 3.67713C8.4775 3.74779 8.53613 3.85072 8.55136 3.96406C8.5666 4.0774 8.53723 4.19224 8.4695 4.2842L8.469 4.2837Z" fill="#008E53"/>
</svg>
